<?xml version="1.0" encoding="UTF-8" standalone="no"?>
<svg
   fill="none"
   height="32"
   viewBox="0 0 32 32"
   width="32"
   version="1.1"
   id="svg21"
   sodipodi:docname="element-logo.svg"
   inkscape:version="1.2.2 (732a01da63, 2022-12-09)"
   xmlns:inkscape="http://www.inkscape.org/namespaces/inkscape"
   xmlns:sodipodi="http://sodipodi.sourceforge.net/DTD/sodipodi-0.dtd"
   xmlns="http://www.w3.org/2000/svg"
   xmlns:svg="http://www.w3.org/2000/svg">
  <sodipodi:namedview
     id="namedview23"
     pagecolor="#ffffff"
     bordercolor="#000000"
     borderopacity="0.25"
     inkscape:showpageshadow="2"
     inkscape:pageopacity="0.0"
     inkscape:pagecheckerboard="0"
     inkscape:deskcolor="#d1d1d1"
     showgrid="false"
     inkscape:zoom="8.1756757"
     inkscape:cx="58.099174"
     inkscape:cy="16.02314"
     inkscape:window-width="1920"
     inkscape:window-height="1057"
     inkscape:window-x="-8"
     inkscape:window-y="-8"
     inkscape:window-maximized="1"
     inkscape:current-layer="g14" />
  <g
     clip-path="url(#clip0_1093_84885-720778)"
     id="g14">
    <path
       clip-rule="evenodd"
       d="M 16,32 C 24.8365,32 32,24.8365 32,16 32,7.16346 24.8365,0 16,0 7.16346,0 0,7.16346 0,16 0,24.8365 7.16346,32 16,32 Z"
       fill="#0dbd8b"
       fill-rule="evenodd"
       id="path2" />
    <path
       clip-rule="evenodd"
       d="m 13.0781,7.45456 c 0,-0.64586 0.5247,-1.1694 1.1719,-1.1694 4.3864,0 7.9423,3.54851 7.9423,7.92584 0,0.6458 -0.5247,1.1694 -1.1718,1.1694 -0.6472,0 -1.1719,-0.5236 -1.1719,-1.1694 0,-3.0856 -2.5066,-5.58704 -5.5986,-5.58704 -0.6472,0 -1.1719,-0.52357 -1.1719,-1.1694 z"
       fill="#ffffff"
       fill-rule="evenodd"
       id="path4" />
    <path
       clip-rule="evenodd"
       d="m 24.5439,13.043 c 0.6472,0 1.1718,0.5235 1.1718,1.1694 0,4.3773 -3.5559,7.9258 -7.9423,7.9258 -0.6472,0 -1.1718,-0.5235 -1.1718,-1.1694 0,-0.6458 0.5246,-1.1694 1.1718,-1.1694 3.0921,0 5.5987,-2.5014 5.5987,-5.587 0,-0.6459 0.5246,-1.1694 1.1718,-1.1694 z"
       fill="#ffffff"
       fill-rule="evenodd"
       id="path6" />
    <path
       clip-rule="evenodd"
       d="m 18.9423,24.543 c 0,0.6459 -0.5247,1.1694 -1.1718,1.1694 -4.3865,0 -7.94238,-3.5485 -7.94238,-7.9258 0,-0.6459 0.52468,-1.1694 1.17188,-1.1694 0.6471,0 1.1718,0.5235 1.1718,1.1694 0,3.0856 2.5066,5.587 5.5987,5.587 0.6471,0 1.1718,0.5236 1.1718,1.1694 z"
       fill="#ffffff"
       fill-rule="evenodd"
       id="path8" />
    <path
       clip-rule="evenodd"
       d="m 7.46086,18.9585 c -0.64717,0 -1.1718,-0.5235 -1.1718,-1.1694 -3e-5,-4.3773 3.55589,-7.92582 7.94234,-7.92582 0.6472,0 1.1718,0.52362 1.1718,1.16942 0,0.6458 -0.5246,1.1694 -1.1718,1.1694 -3.0921,0 -5.59871,2.5014 -5.59871,5.587 0,0.6459 -0.52463,1.1694 -1.17183,1.1694 z"
       fill="#ffffff"
       fill-rule="evenodd"
       id="path10" />
  </g>
  <defs
     id="defs19">
    <clipPath
       id="clip0_1093_84885-720778">
      <rect
         fill="currentColor"
         height="32"
         width="148"
         id="rect16"
         x="0"
         y="0" />
    </clipPath>
  </defs>
</svg>
